<svg id="Layer_1" data-name="Layer 1" xmlns="http://www.w3.org/2000/svg" viewBox="0 0 500.28 112.14"><defs><style>.cls-1{fill:#fff;}</style></defs><path class="cls-1" d="M2.54,17.78V7H499.28V17.78Z"/><path class="cls-1" d="M499.43,95.28v10.56H2.68V95.28Z"/><path class="cls-1" d="M68.73,41.4c6.33-7,13-9.51,20.45-7.8,3.73.86,7,3.74,11.15,6.09,4-4.46,9.71-7,17-6.46,8.39.6,14.58,6.13,14.67,14.57.11,11.54,0,23.08,0,35h-13c0-10.12,0-20.19,0-30.27,0-5.2-2.61-8.66-6.85-9.3A9,9,0,0,0,102,52c-.11,10.11,0,20.22,0,31.2A104.5,104.5,0,0,1,90,83c-1-.12-2.41-2.48-2.44-3.84-.23-8.81-.07-17.62-.14-26.43,0-6.12-2.8-9.53-7.46-9.53S70.28,47.93,70.19,53c-.19,9.79-.06,19.58-.06,29.8H57.05V40.55c0-6.48,0-6.2,6.42-6.16C67.41,34.41,70.11,34.87,68.73,41.4Z"/><path class="cls-1" d="M449.31,83.44c-4.48-1.38-9.75,2-14.18-3.33-5.36,3.45-12,5.76-19.35,4.69-6.43-.93-11-3.88-13.3-11.12a12.3,12.3,0,0,1,4.86-14.08c3.68-2.58,8.8-3.23,13.37-4.36,3.79-.94,7.81-1,11.5-2.18,1.3-.41,2.74-3,2.63-4.51-.14-1.88-1.36-4.63-2.87-5.3-6.21-2.78-10-1.39-14.05,4.24-1.56,2.18-11.11,3.61-12.84,1.69-.65-.72-.62-2.4-.35-3.51,1.7-7.18,7.49-10.87,13.69-11.72,7-1,14.45-.1,21.47,1.23,7.28,1.37,9.37,7.48,9.4,14.24C449.35,60.49,449.31,71.55,449.31,83.44ZM434.89,60.21c-4.85,1-9.3,2.06-13.79,2.87-3.4.61-4.5,2.83-4.72,5.87s.55,5.61,3.92,6.52c4.28,1.14,8.39,1.08,11.92-2C436.37,69.74,435.42,65.1,434.89,60.21Z"/><path class="cls-1" d="M344.18,83.28c-4.66-1.18-10.13,2.56-14.2-3.59a25.58,25.58,0,0,1-19.13,5.09c-4.58-.57-8.73-2-11.4-6.35-6-9.88-1.78-19.58,8.71-21.89,5.64-1.25,11.44-1.85,17-3.35,1.92-.52,4.63-2.87,4.65-4.41,0-2-1.89-4.83-3.74-5.74-6.49-3.17-10.67-1.31-14.41,4.91-.7,1.17-3.19,1.88-4.79,1.77-2.68-.19-5.3-1.2-7.94-1.87,1.53-3.11,2.43-6.85,4.76-9.15a17.14,17.14,0,0,1,9.45-4.82c8-.83,16.14-1.94,23.78,2.18,4.29,2.32,6.6,5.72,6.64,10.56.06,8.12,0,16.25.05,24.37C343.65,74.79,344,78.58,344.18,83.28Zm-14.5-22.87c-2.55.34-4.85.53-7.09,1s-4.74.67-6.64,1.8c-2.21,1.32-4.79,3.23-5.51,5.44-.53,1.64,1.12,5.18,2.76,6a14.24,14.24,0,0,0,8.59,1.11C328.56,74.56,330.58,70.27,329.68,60.41Z"/><path class="cls-1" d="M49.64,83.22c-4.81-1-10.38,2.56-14.43-3.49-5.91,4.69-12.69,5.91-19.88,5C9.12,84,4.49,80.42,2.77,74.58,1.18,69.18,1.83,63.27,7,59.84c3.38-2.24,7.65-3.3,11.66-4.36s8.22-1,12.08-2.29c1.88-.61,4.25-3,4.39-4.71s-1.79-4.59-3.53-5.39c-6.06-2.77-11-1.59-13.43,3.44C15.45,52.29,10.77,49,7,49.73c-.76.15-2.62-1.29-2.54-1.51C5.54,45.05,6,40.67,8.31,39.15A34.15,34.15,0,0,1,23,33.63c5.72-.57,11.78.42,17.45,1.77,5.87,1.4,8.39,5.59,8.45,11.71.07,8.28,0,16.56.07,24.84C49,75.39,49.35,78.83,49.64,83.22Zm-14.71-23c-4.81,1-9.3,2-13.81,2.92-3.56.71-5,3.44-5,6.43,0,2.6.56,5.17,4.29,6.14C30.55,78.31,36.76,72.12,34.93,60.17Z"/><path class="cls-1" d="M186,67.62c-4.29,14.61-15.41,19.26-28.29,16.86a24.44,24.44,0,0,1-20.06-29c3.8-17.28,13.76-24.37,31.59-21.8,9.62,1.38,19.93,12.86,17.11,28.54h-34a8.35,8.35,0,0,0,3.07,10.29c3.3,2.3,7.59,4.33,12,1.63,2.27-1.4,4.25-3.52,6.69-4.32C177.67,68.67,181.51,68.41,186,67.62ZM173.69,53c-4.29-9.27-8.62-11.89-15.47-9.63A9.2,9.2,0,0,0,152.47,53Z"/><path class="cls-1" d="M350.15,82.83c0-6.64,0-12.62,0-18.6,0-8.92-.08-17.85.27-26.77.05-1.19,2.35-3.07,3.79-3.27,2.83-.39,5.79.18,9,.36.21,1.77.4,3.33.7,5.81a22.42,22.42,0,0,1,18.84-7.12c7.67.59,13.8,6,13.89,13.58.13,12,0,23.93,0,36.14H383.7V54.58c0-7.14-2.69-11.11-7.79-11.27-5.78-.18-11.29,3.35-11.41,10.81-.15,8.65,0,17.3,0,25.94a27.1,27.1,0,0,1-.35,2.77Z"/><path class="cls-1" d="M453.89,68.28c3.62,0,6.78-.18,9.91.1a5,5,0,0,1,3,2.16c3.5,5.08,10.15,7.27,15.63,4.45,1.79-.91,3.93-3.21,3.94-4.89s-2.18-4.07-3.95-4.77c-4.47-1.77-9.39-2.4-13.85-4.17-4.08-1.63-8.81-3.32-11.46-6.48-5-6-1.79-14.56,4.69-18.36,7.47-4.38,24.41-5.19,31.58,2,2.42,2.44,4,5.74,5.92,8.65l-1.1,1.28c-3.46,0-6.92.11-10.37-.07a4.06,4.06,0,0,1-2.73-1.5c-3.68-5.09-9.63-6.52-14.86-3.42-2.59,1.53-2.49,5.17.57,6.84a43.59,43.59,0,0,0,8.64,3.19c4.26,1.24,8.77,1.81,12.87,3.45,5.95,2.37,7.88,6.46,7.31,13.36a16,16,0,0,1-10.05,13,37.35,37.35,0,0,1-25.52-.32C458.21,80.54,454.56,75.51,453.89,68.28Z"/><path class="cls-1" d="M293.78,51.4c-3.65,0-7.28.12-10.89-.09a3.48,3.48,0,0,1-2.55-1.77c-1.86-4.9-5.35-6.77-10.45-6.45a10.26,10.26,0,0,0-9.4,7.4c-1.92,6-2.48,12.49,1,18.52,4.32,7.56,13.49,8.83,17.59,1.4s9.51-4.85,15.07-5c-1.56,14.76-14,20.82-27.74,19.35-12.34-1.32-22.22-13.53-21-26.65,1.29-13.82,8.38-24.27,23.51-24.66C284.37,33,293,39.38,293.78,51.4Z"/><path class="cls-1" d="M205.18,83H192.43V35.06c11.08-2,11.08-2,13.25,6.5,4.81-5.17,9.76-9.85,17.84-7.7v11c-3.86.69-7.92.7-11.35,2.19-5.92,2.56-6.39,8.73-6.84,14.08C204.74,68.21,205.18,75.33,205.18,83Z"/><path class="cls-1" d="M229.27,33.61h12.28V82.86H229.27Z"/></svg>